<svg xmlns="http://www.w3.org/2000/svg" xmlns:xlink="http://www.w3.org/1999/xlink" width="1920" zoomAndPan="magnify" viewBox="0 0 1440 809.999993" height="1080" preserveAspectRatio="xMidYMid meet" version="1.0"><defs><clipPath id="09ab57841e"><path d="M 432 314.058594 L 1008 314.058594 L 1008 577.308594 L 432 577.308594 Z M 432 314.058594 " clip-rule="nonzero"/></clipPath></defs><g clip-path="url(#09ab57841e)"><path fill="#ffffff" d="M 786.414062 499.875 C 781.46875 499.875 776.863281 499.726562 772.269531 499.90625 C 761.667969 500.324219 751.074219 500.902344 740.472656 501.394531 C 733.441406 501.722656 726.40625 501.972656 719.375 502.320312 C 704.6875 503.058594 690.003906 503.832031 675.316406 504.632812 C 667.214844 505.066406 659.15625 505.4375 651.089844 506.039062 C 639.878906 506.878906 628.6875 507.890625 617.492188 508.851562 C 608.910156 509.585938 600.332031 510.34375 591.753906 511.125 C 582.027344 512.023438 572.304688 512.964844 562.578125 513.886719 C 554.734375 514.625 546.890625 515.339844 539.046875 516.097656 C 526.609375 517.292969 514.167969 518.722656 501.71875 519.65625 C 492.367188 520.359375 483.203125 522.148438 473.945312 523.398438 C 468.351562 524.101562 462.835938 523.703125 457.402344 522.203125 C 453.414062 521.261719 449.945312 519.378906 446.984375 516.546875 C 444.394531 514.046875 442.292969 511.183594 440.675781 507.964844 C 439.058594 504.75 438.019531 501.355469 437.558594 497.78125 C 435.910156 485.183594 434.492188 472.558594 433.039062 459.9375 C 432.691406 457.015625 432.5 454.082031 432.460938 451.136719 C 432.308594 438.179688 432.101562 425.242188 433.835938 412.40625 C 434.546875 407.097656 435.71875 401.886719 437.351562 396.785156 C 441.144531 384.945312 449.457031 377.6875 461.285156 374.285156 C 468.226562 372.296875 475.328125 371.722656 482.457031 371.324219 C 496.550781 370.542969 510.578125 371.265625 524.621094 372.683594 C 541.234375 374.355469 557.882812 375.785156 574.550781 376.859375 C 594.578125 378.152344 614.585938 379.40625 634.542969 381.632812 C 650.195312 383.371094 665.9375 384.347656 681.628906 385.726562 C 694.394531 386.84375 707.152344 388.039062 719.914062 389.199219 C 730.269531 390.136719 740.625 391.113281 750.988281 391.957031 C 764.070312 393.027344 777.171875 393.988281 790.261719 394.988281 C 790.867188 395.035156 791.488281 394.988281 792.488281 394.988281 C 792.488281 393.398438 792.488281 391.953125 792.488281 390.511719 C 792.273438 378.730469 791.40625 367.007812 787.957031 355.648438 C 787.320312 353.535156 786.644531 351.441406 785.988281 349.339844 C 784.566406 344.792969 783.582031 340.207031 784.3125 335.394531 C 785.320312 328.734375 788.667969 323.527344 794.488281 320.269531 C 798.003906 318.351562 801.6875 316.863281 805.542969 315.796875 C 811.671875 314.058594 817.640625 315.027344 823.1875 318.160156 C 827.234375 320.4375 831.316406 322.625 835.070312 325.285156 C 847.101562 333.824219 860.046875 340.808594 872.933594 347.851562 C 890.152344 357.296875 907.511719 366.492188 924.695312 376 C 937.921875 383.320312 950.992188 390.925781 964.101562 398.472656 C 972.46875 403.292969 980.816406 408.152344 989.070312 413.164062 C 992.082031 415.097656 994.957031 417.214844 997.695312 419.519531 C 1004.90625 425.304688 1007.847656 432.933594 1006.851562 442.085938 C 1006.652344 443.855469 1006.550781 445.65625 1006.195312 447.398438 C 1005.671875 449.9375 1004.773438 452.335938 1003.496094 454.59375 C 1002.21875 456.851562 1000.625 458.859375 998.714844 460.613281 C 991.660156 467.367188 983.53125 472.5625 974.988281 477.105469 C 964.132812 482.882812 953.390625 488.8125 943.011719 495.46875 C 928.917969 504.464844 915.585938 514.527344 901.859375 524.046875 C 892.710938 530.414062 883.390625 536.488281 874.003906 542.476562 C 861.144531 550.671875 848.617188 559.300781 836.753906 568.910156 C 832.347656 572.488281 827.496094 575.519531 821.710938 576.433594 C 819.4375 576.835938 817.144531 577.117188 814.839844 577.273438 C 808.367188 577.609375 802.769531 575.445312 797.65625 571.445312 C 788.511719 564.292969 785.117188 554.4375 783.84375 543.460938 C 782.488281 531.753906 783.957031 520.183594 785.363281 508.601562 C 785.6875 505.820312 786.03125 503.035156 786.414062 499.875 Z M 786.414062 499.875 " fill-opacity="1" fill-rule="nonzero"/></g></svg>